<?xml version="1.0" encoding="UTF-8"?>
<svg id="Layer_1" xmlns="http://www.w3.org/2000/svg" version="1.1" viewBox="0 0 519 456.9">
  <!-- Generator: Adobe Illustrator 30.7.0, SVG Export Plug-In . SVG Version: 2.1.4 Build 114)  -->
  <defs>
    <style>
      .st0 {
        fill: #36996f;
      }

      .st0, .st1, .st2, .st3, .st4, .st5 {
        fill-rule: evenodd;
      }

      .st1 {
        fill: #ce3b30;
      }

      .st6 {
        fill: #8b5a2b;
      }

      .st2 {
        fill: #327724;
      }

      .st3 {
        fill: #ece7da;
      }

      .st4 {
        fill: #e29314;
      }

      .st5 {
        fill: #9b3f45;
      }
    </style>
  </defs>
  <path class="st2" d="M385.6,89.2c0-1.9.2-3.6.7-5.3.8-2.6,2.5-3.9,5.2-3.6,1.3.1,2.5.4,3.6.8l8.9,3.1c3,1,5.9,2,9,2.6,2.9.6,5.7.6,7.7-1.6,1.5-1.7,2.4-3.8,2.6-6,.2-2.4-.2-4.7-1-7-.9-2.5-2-4.7-3.4-7-5.4-8.9-13-16.5-21.1-22.8-1.1-.8-1.5-2-1.2-3.3.3-1.6.9-3.1,1.5-4.7l2-5.4c2.2-7.7.1-15.9-5.6-21.5-4-4-9.4-6.5-15-7.2-7-.9-13.9,1.6-18.7,6.8l-3.5,4.1c-1,1.2-2,2.5-3.3,3.5-1,.8-2.1.9-3.2.4-6.9-2.9-14-5.1-21.3-6.2-5.7-.9-13.1-1.3-18.6.3-2.2.6-4.2,1.7-5.9,3.2l-1.1,1.3c-1.1,1.3-1.8,3-1.8,4.7,0,3,2.8,5.9,4.9,8,1.8,1.8,3.7,3.4,5.7,5.2l4.6,4.1c1.1,1,2.1,2,3,3.3.7.9,1.2,2,1.1,3.2-.2,2.8-3.4,5.2-5.9,6.7l-17.3,10.2,87.2,50.5.3-20.2Z"/>
  <path class="st3" d="M384.1,367.4c0,1.9.2,3.6.7,5.3.8,2.6,2.5,3.9,5.2,3.6,1.3-.1,2.5-.4,3.6-.8l9-3c3-1,5.9-2,9-2.6,2.9-.6,5.7-.6,7.7,1.6,1.5,1.7,2.3,3.8,2.6,6,.2,2.4-.2,4.7-1,7-.9,2.5-2.1,4.7-3.4,7-5.4,8.9-13,16.4-21.2,22.8-1.1.8-1.5,2-1.2,3.3.3,1.6.9,3.1,1.5,4.7l2,5.4c2.2,7.7.1,15.9-5.6,21.5-4,4-9.4,6.5-15,7.2-7,.9-13.9-1.6-18.7-6.8l-3.5-4.1c-1-1.2-2-2.5-3.3-3.5-1-.8-2.1-.9-3.2-.4-6.9,2.9-14,5-21.3,6.2-5.7.9-13.1,1.2-18.6-.3-2.2-.6-4.2-1.7-5.9-3.2l-1.1-1.3c-1.1-1.3-1.8-3-1.8-4.7,0-3,2.8-5.9,5-8,1.8-1.8,3.7-3.4,5.7-5.2l4.6-4.1c1.1-1,2.1-2,3-3.3.7-.9,1.2-2,1.1-3.2-.2-2.8-3.4-5.2-5.9-6.7l-17.3-10.2,87.2-50.4.3,20.2Z"/>
  <path class="st1" d="M197.8,51.2c-1.6-1-3-2-4.2-3.3-1.8-2-2.1-4.1-.5-6.3.7-1,1.6-1.9,2.5-2.7l7.1-6.2c2.4-2.1,4.6-4.1,6.7-6.5,1.9-2.2,3.4-4.6,2.5-7.5-.7-2.1-2.1-3.9-3.9-5.2-1.9-1.4-4.2-2.2-6.6-2.6-2.6-.5-5.1-.6-7.7-.5-10.4.2-20.8,3-30.3,6.9-1.2.5-2.4.3-3.5-.6-1.2-1.1-2.2-2.4-3.3-3.7l-3.7-4.4c-5.6-5.8-13.7-8-21.4-5.9-5.4,1.5-10.3,4.9-13.7,9.4-4.3,5.7-5.6,12.8-3.5,19.6l1.8,5.1c.5,1.5,1.1,3,1.4,4.6.2,1.2-.2,2.2-1.2,3-5.9,4.5-11.3,9.6-16,15.4-3.6,4.5-7.6,10.7-9.1,16.3-.6,2.3-.6,4.5-.2,6.7l.6,1.6c.6,1.6,1.7,3.1,3.2,3.9,2.5,1.5,6.5.5,9.4-.3,2.5-.7,4.9-1.5,7.3-2.3l5.9-2c1.4-.5,2.8-.8,4.3-1,1.1-.1,2.3,0,3.3.6,2.4,1.6,2.8,5.5,2.8,8.5l.2,20.1,87.3-50.3-17.4-10.4Z"/>
  <path class="st5" d="M134.6,367.7c0,1.9-.2,3.6-.7,5.3-.8,2.6-2.5,3.9-5.2,3.6-1.3-.1-2.5-.4-3.6-.8l-8.9-3.1c-3-1-5.9-2-9-2.6-2.9-.6-5.7-.6-7.7,1.6-1.5,1.7-2.4,3.8-2.6,6-.2,2.4.2,4.7,1,7,.9,2.5,2,4.7,3.4,7,5.4,8.9,13,16.5,21.1,22.8,1.1.8,1.5,2,1.2,3.3-.3,1.6-.9,3.1-1.5,4.7l-2,5.4c-2.2,7.7-.1,15.9,5.6,21.5,4,4,9.4,6.5,15,7.2,7,.9,13.9-1.6,18.7-6.8l3.5-4.1c1-1.2,2-2.5,3.3-3.5,1-.8,2.1-.9,3.2-.4,6.9,2.9,14,5.1,21.3,6.2,5.7.9,13.1,1.3,18.6-.3,2.2-.6,4.2-1.7,5.9-3.2l1.1-1.3c1.1-1.3,1.8-3,1.8-4.7,0-3-2.8-5.9-4.9-8-1.8-1.8-3.7-3.4-5.7-5.2l-4.6-4.1c-1.1-1-2.1-2-3-3.3-.7-.9-1.2-2-1.1-3.2.2-2.8,3.4-5.2,5.9-6.7l17.3-10.2-87.2-50.5-.3,20.2Z"/>
  <path class="st0" d="M75.9,260.4c-1.6-.9-3.2-1.6-5-2-2.6-.6-4.6.2-5.7,2.7-.5,1.1-.9,2.3-1.1,3.5l-1.9,9.3c-.6,3.1-1.3,6.1-2.3,9.1-.9,2.7-2.3,5.3-5.3,5.9-2.2.5-4.5.1-6.5-.8-2.2-1-4-2.6-5.6-4.4-1.7-2-3-4.1-4.3-6.5-5-9.1-7.7-19.5-9-29.8-.2-1.3-1-2.3-2.2-2.7-1.6-.5-3.2-.8-4.8-1.1l-5.6-1c-7.8-2-13.8-7.9-15.7-15.7-1.4-5.5-.9-11.4,1.3-16.6,2.8-6.5,8.4-11.2,15.3-12.8l5.3-.9c1.6-.3,3.2-.5,4.6-1.1,1.2-.4,1.8-1.3,2-2.6,1-7.4,2.7-14.6,5.4-21.6,2.1-5.4,5.5-11.9,9.6-15.9,1.7-1.6,3.6-2.8,5.7-3.5l1.7-.3c1.7-.3,3.5,0,5,.8,2.6,1.5,3.7,5.4,4.4,8.3.7,2.5,1.1,5,1.6,7.5l1.2,6.1c.3,1.4.7,2.9,1.3,4.3.5,1.1,1.1,2,2.2,2.6,2.5,1.3,6.2-.3,8.7-1.7l17.6-9.8-.3,100.7-17.6-9.9Z"/>
  <path class="st4" d="M442.8,274c1.6-.9,3.2-1.6,5-2,2.6-.6,4.6.3,5.7,2.7.5,1.1.9,2.3,1.1,3.5l1.8,9.3c.6,3.1,1.2,6.1,2.2,9.1.9,2.8,2.3,5.3,5.2,5.9,2.2.5,4.5.1,6.5-.8,2.2-1,4-2.5,5.6-4.4,1.7-2,3.1-4.1,4.3-6.4,5-9.1,7.8-19.5,9.3-29.7.2-1.3,1-2.2,2.3-2.7,1.6-.5,3.2-.7,4.8-1l5.6-1c7.8-1.9,13.8-7.8,15.9-15.6,1.4-5.5,1-11.4-1.2-16.6-2.7-6.6-8.3-11.3-15.2-12.9l-5.3-1c-1.6-.3-3.2-.5-4.6-1.1-1.2-.5-1.8-1.3-2-2.6-.9-7.4-2.6-14.6-5.2-21.6-2.1-5.4-5.4-12-9.5-16-1.7-1.6-3.6-2.8-5.7-3.6l-1.7-.3c-1.7-.3-3.5,0-5,.8-2.6,1.4-3.7,5.4-4.5,8.3-.7,2.5-1.1,5-1.7,7.5l-1.3,6.1c-.3,1.4-.7,2.8-1.3,4.2-.5,1-1.2,2-2.2,2.5-2.5,1.2-6.2-.4-8.7-1.8l-17.5-9.9-.4,100.7,17.7-9.8Z"/>
  <path class="st6" d="M93.4,134.8c0-2.3.9-3.6,2.7-4.6l161.6-93c1.5-.5,2.7-.7,4.1.1l162.2,93.9c1.3.7,2.1,2.1,2.1,3.5l-.7,186.8c-.2,1.6-.7,2.6-2,3.6l-161.3,93.4c-1.6.9-3.2,1.1-4.9.1l-161.7-93.6c-1.5-.9-2.1-2-2.4-3.6l.2-186.5ZM275.4,346.3l139.6-28.4-44.9-135.2-94.7,163.7ZM376.5,173.4l39.9,119.7.6-149.2-40.5,29.5ZM265.1,406.3l129.1-74.8-123.7,25-5.4,49.8ZM371.9,165.5l41.3-30.2-132.8-76.8,91.5,107ZM123.2,330.4l132.7,76.9,5.6-50.9-138.3-26ZM266.4,343.8l97-167.7-196.3-1.7,99.3,169.5ZM168.4,165.4l193.1,1.7-101.7-118.7-91.4,117.1ZM104,317.5l153.5,28.9-97.6-166.6-55.9,137.7ZM158.1,163.9l83.5-107-134.6,77.4,51.2,29.6ZM102.5,142.1l-.2,155.3,51.3-125.7-51.1-29.6Z"/>
</svg>